<mxfile host="app.diagrams.net" modified="2020-10-31T17:14:43.773Z" agent="5.0 (Windows NT 10.0; Win64; x64) AppleWebKit/537.36 (KHTML, like Gecko) Chrome/86.0.4240.111 Safari/537.36" etag="kgw3ZP_ys8lyhQ8QjMtD" version="13.8.8" type="github">
  <diagram id="OV4kXzgy805sl3v_YtUF" name="Page-1">
    <mxGraphModel dx="942" dy="643" grid="1" gridSize="10" guides="1" tooltips="1" connect="1" arrows="1" fold="1" page="1" pageScale="1" pageWidth="850" pageHeight="1100" math="0" shadow="0">
      <root>
        <mxCell id="0" />
        <mxCell id="1" parent="0" />
        <mxCell id="CWw4QK-ktK1M6ZPqgGHz-1" value="UserAccount" style="shape=table;startSize=30;container=1;collapsible=1;childLayout=tableLayout;fixedRows=1;rowLines=0;fontStyle=1;align=center;resizeLast=1;" vertex="1" parent="1">
          <mxGeometry x="40" y="40" width="180" height="310" as="geometry" />
        </mxCell>
        <mxCell id="CWw4QK-ktK1M6ZPqgGHz-2" value="" style="shape=partialRectangle;collapsible=0;dropTarget=0;pointerEvents=0;fillColor=none;top=0;left=0;bottom=1;right=0;points=[[0,0.5],[1,0.5]];portConstraint=eastwest;" vertex="1" parent="CWw4QK-ktK1M6ZPqgGHz-1">
          <mxGeometry y="30" width="180" height="30" as="geometry" />
        </mxCell>
        <mxCell id="CWw4QK-ktK1M6ZPqgGHz-3" value="PK" style="shape=partialRectangle;connectable=0;fillColor=none;top=0;left=0;bottom=0;right=0;fontStyle=1;overflow=hidden;" vertex="1" parent="CWw4QK-ktK1M6ZPqgGHz-2">
          <mxGeometry width="30" height="30" as="geometry" />
        </mxCell>
        <mxCell id="CWw4QK-ktK1M6ZPqgGHz-4" value="UserID" style="shape=partialRectangle;connectable=0;fillColor=none;top=0;left=0;bottom=0;right=0;align=left;spacingLeft=6;fontStyle=5;overflow=hidden;" vertex="1" parent="CWw4QK-ktK1M6ZPqgGHz-2">
          <mxGeometry x="30" width="150" height="30" as="geometry" />
        </mxCell>
        <mxCell id="CWw4QK-ktK1M6ZPqgGHz-5" value="" style="shape=partialRectangle;collapsible=0;dropTarget=0;pointerEvents=0;fillColor=none;top=0;left=0;bottom=0;right=0;points=[[0,0.5],[1,0.5]];portConstraint=eastwest;" vertex="1" parent="CWw4QK-ktK1M6ZPqgGHz-1">
          <mxGeometry y="60" width="180" height="30" as="geometry" />
        </mxCell>
        <mxCell id="CWw4QK-ktK1M6ZPqgGHz-6" value="" style="shape=partialRectangle;connectable=0;fillColor=none;top=0;left=0;bottom=0;right=0;editable=1;overflow=hidden;" vertex="1" parent="CWw4QK-ktK1M6ZPqgGHz-5">
          <mxGeometry width="30" height="30" as="geometry" />
        </mxCell>
        <mxCell id="CWw4QK-ktK1M6ZPqgGHz-7" value="Email" style="shape=partialRectangle;connectable=0;fillColor=none;top=0;left=0;bottom=0;right=0;align=left;spacingLeft=6;overflow=hidden;" vertex="1" parent="CWw4QK-ktK1M6ZPqgGHz-5">
          <mxGeometry x="30" width="150" height="30" as="geometry" />
        </mxCell>
        <mxCell id="CWw4QK-ktK1M6ZPqgGHz-8" value="" style="shape=partialRectangle;collapsible=0;dropTarget=0;pointerEvents=0;fillColor=none;top=0;left=0;bottom=0;right=0;points=[[0,0.5],[1,0.5]];portConstraint=eastwest;" vertex="1" parent="CWw4QK-ktK1M6ZPqgGHz-1">
          <mxGeometry y="90" width="180" height="30" as="geometry" />
        </mxCell>
        <mxCell id="CWw4QK-ktK1M6ZPqgGHz-9" value="" style="shape=partialRectangle;connectable=0;fillColor=none;top=0;left=0;bottom=0;right=0;editable=1;overflow=hidden;" vertex="1" parent="CWw4QK-ktK1M6ZPqgGHz-8">
          <mxGeometry width="30" height="30" as="geometry" />
        </mxCell>
        <mxCell id="CWw4QK-ktK1M6ZPqgGHz-10" value="Username(Login)" style="shape=partialRectangle;connectable=0;fillColor=none;top=0;left=0;bottom=0;right=0;align=left;spacingLeft=6;overflow=hidden;" vertex="1" parent="CWw4QK-ktK1M6ZPqgGHz-8">
          <mxGeometry x="30" width="150" height="30" as="geometry" />
        </mxCell>
        <mxCell id="CWw4QK-ktK1M6ZPqgGHz-11" value="" style="shape=partialRectangle;collapsible=0;dropTarget=0;pointerEvents=0;fillColor=none;top=0;left=0;bottom=0;right=0;points=[[0,0.5],[1,0.5]];portConstraint=eastwest;" vertex="1" parent="CWw4QK-ktK1M6ZPqgGHz-1">
          <mxGeometry y="120" width="180" height="30" as="geometry" />
        </mxCell>
        <mxCell id="CWw4QK-ktK1M6ZPqgGHz-12" value="" style="shape=partialRectangle;connectable=0;fillColor=none;top=0;left=0;bottom=0;right=0;editable=1;overflow=hidden;" vertex="1" parent="CWw4QK-ktK1M6ZPqgGHz-11">
          <mxGeometry width="30" height="30" as="geometry" />
        </mxCell>
        <mxCell id="CWw4QK-ktK1M6ZPqgGHz-13" value="Password" style="shape=partialRectangle;connectable=0;fillColor=none;top=0;left=0;bottom=0;right=0;align=left;spacingLeft=6;overflow=hidden;" vertex="1" parent="CWw4QK-ktK1M6ZPqgGHz-11">
          <mxGeometry x="30" width="150" height="30" as="geometry" />
        </mxCell>
        <mxCell id="CWw4QK-ktK1M6ZPqgGHz-15" value="" style="shape=partialRectangle;collapsible=0;dropTarget=0;pointerEvents=0;fillColor=none;top=0;left=0;bottom=0;right=0;points=[[0,0.5],[1,0.5]];portConstraint=eastwest;" vertex="1" parent="CWw4QK-ktK1M6ZPqgGHz-1">
          <mxGeometry y="150" width="180" height="30" as="geometry" />
        </mxCell>
        <mxCell id="CWw4QK-ktK1M6ZPqgGHz-16" value="" style="shape=partialRectangle;connectable=0;fillColor=none;top=0;left=0;bottom=0;right=0;editable=1;overflow=hidden;" vertex="1" parent="CWw4QK-ktK1M6ZPqgGHz-15">
          <mxGeometry width="30" height="30" as="geometry" />
        </mxCell>
        <mxCell id="CWw4QK-ktK1M6ZPqgGHz-17" value="Date Of Birth" style="shape=partialRectangle;connectable=0;fillColor=none;top=0;left=0;bottom=0;right=0;align=left;spacingLeft=6;overflow=hidden;" vertex="1" parent="CWw4QK-ktK1M6ZPqgGHz-15">
          <mxGeometry x="30" width="150" height="30" as="geometry" />
        </mxCell>
        <mxCell id="CWw4QK-ktK1M6ZPqgGHz-18" value="" style="shape=partialRectangle;collapsible=0;dropTarget=0;pointerEvents=0;fillColor=none;top=0;left=0;bottom=0;right=0;points=[[0,0.5],[1,0.5]];portConstraint=eastwest;" vertex="1" parent="CWw4QK-ktK1M6ZPqgGHz-1">
          <mxGeometry y="180" width="180" height="30" as="geometry" />
        </mxCell>
        <mxCell id="CWw4QK-ktK1M6ZPqgGHz-19" value="" style="shape=partialRectangle;connectable=0;fillColor=none;top=0;left=0;bottom=0;right=0;editable=1;overflow=hidden;" vertex="1" parent="CWw4QK-ktK1M6ZPqgGHz-18">
          <mxGeometry width="30" height="30" as="geometry" />
        </mxCell>
        <mxCell id="CWw4QK-ktK1M6ZPqgGHz-20" value="Full Name" style="shape=partialRectangle;connectable=0;fillColor=none;top=0;left=0;bottom=0;right=0;align=left;spacingLeft=6;overflow=hidden;" vertex="1" parent="CWw4QK-ktK1M6ZPqgGHz-18">
          <mxGeometry x="30" width="150" height="30" as="geometry" />
        </mxCell>
        <mxCell id="CWw4QK-ktK1M6ZPqgGHz-21" value="" style="shape=partialRectangle;collapsible=0;dropTarget=0;pointerEvents=0;fillColor=none;top=0;left=0;bottom=0;right=0;points=[[0,0.5],[1,0.5]];portConstraint=eastwest;" vertex="1" parent="CWw4QK-ktK1M6ZPqgGHz-1">
          <mxGeometry y="210" width="180" height="30" as="geometry" />
        </mxCell>
        <mxCell id="CWw4QK-ktK1M6ZPqgGHz-22" value="" style="shape=partialRectangle;connectable=0;fillColor=none;top=0;left=0;bottom=0;right=0;editable=1;overflow=hidden;" vertex="1" parent="CWw4QK-ktK1M6ZPqgGHz-21">
          <mxGeometry width="30" height="30" as="geometry" />
        </mxCell>
        <mxCell id="CWw4QK-ktK1M6ZPqgGHz-23" value="Display name" style="shape=partialRectangle;connectable=0;fillColor=none;top=0;left=0;bottom=0;right=0;align=left;spacingLeft=6;overflow=hidden;" vertex="1" parent="CWw4QK-ktK1M6ZPqgGHz-21">
          <mxGeometry x="30" width="150" height="30" as="geometry" />
        </mxCell>
        <mxCell id="CWw4QK-ktK1M6ZPqgGHz-24" value="" style="shape=partialRectangle;collapsible=0;dropTarget=0;pointerEvents=0;fillColor=none;top=0;left=0;bottom=0;right=0;points=[[0,0.5],[1,0.5]];portConstraint=eastwest;" vertex="1" parent="CWw4QK-ktK1M6ZPqgGHz-1">
          <mxGeometry y="240" width="180" height="30" as="geometry" />
        </mxCell>
        <mxCell id="CWw4QK-ktK1M6ZPqgGHz-25" value="" style="shape=partialRectangle;connectable=0;fillColor=none;top=0;left=0;bottom=0;right=0;editable=1;overflow=hidden;" vertex="1" parent="CWw4QK-ktK1M6ZPqgGHz-24">
          <mxGeometry width="30" height="30" as="geometry" />
        </mxCell>
        <mxCell id="CWw4QK-ktK1M6ZPqgGHz-26" value="Gender" style="shape=partialRectangle;connectable=0;fillColor=none;top=0;left=0;bottom=0;right=0;align=left;spacingLeft=6;overflow=hidden;" vertex="1" parent="CWw4QK-ktK1M6ZPqgGHz-24">
          <mxGeometry x="30" width="150" height="30" as="geometry" />
        </mxCell>
        <mxCell id="CWw4QK-ktK1M6ZPqgGHz-27" value="" style="shape=partialRectangle;collapsible=0;dropTarget=0;pointerEvents=0;fillColor=none;top=0;left=0;bottom=0;right=0;points=[[0,0.5],[1,0.5]];portConstraint=eastwest;" vertex="1" parent="CWw4QK-ktK1M6ZPqgGHz-1">
          <mxGeometry y="270" width="180" height="30" as="geometry" />
        </mxCell>
        <mxCell id="CWw4QK-ktK1M6ZPqgGHz-28" value="" style="shape=partialRectangle;connectable=0;fillColor=none;top=0;left=0;bottom=0;right=0;editable=1;overflow=hidden;" vertex="1" parent="CWw4QK-ktK1M6ZPqgGHz-27">
          <mxGeometry width="30" height="30" as="geometry" />
        </mxCell>
        <mxCell id="CWw4QK-ktK1M6ZPqgGHz-29" value="Bio" style="shape=partialRectangle;connectable=0;fillColor=none;top=0;left=0;bottom=0;right=0;align=left;spacingLeft=6;overflow=hidden;" vertex="1" parent="CWw4QK-ktK1M6ZPqgGHz-27">
          <mxGeometry x="30" width="150" height="30" as="geometry" />
        </mxCell>
        <mxCell id="CWw4QK-ktK1M6ZPqgGHz-37" value="Stats" style="shape=table;startSize=30;container=1;collapsible=1;childLayout=tableLayout;fixedRows=1;rowLines=0;fontStyle=1;align=center;resizeLast=1;" vertex="1" parent="1">
          <mxGeometry x="560" y="40" width="180" height="250" as="geometry" />
        </mxCell>
        <mxCell id="CWw4QK-ktK1M6ZPqgGHz-38" value="" style="shape=partialRectangle;collapsible=0;dropTarget=0;pointerEvents=0;fillColor=none;top=0;left=0;bottom=1;right=0;points=[[0,0.5],[1,0.5]];portConstraint=eastwest;" vertex="1" parent="CWw4QK-ktK1M6ZPqgGHz-37">
          <mxGeometry y="30" width="180" height="30" as="geometry" />
        </mxCell>
        <mxCell id="CWw4QK-ktK1M6ZPqgGHz-39" value="FK" style="shape=partialRectangle;connectable=0;fillColor=none;top=0;left=0;bottom=0;right=0;fontStyle=1;overflow=hidden;" vertex="1" parent="CWw4QK-ktK1M6ZPqgGHz-38">
          <mxGeometry width="30" height="30" as="geometry" />
        </mxCell>
        <mxCell id="CWw4QK-ktK1M6ZPqgGHz-40" value="UserID" style="shape=partialRectangle;connectable=0;fillColor=none;top=0;left=0;bottom=0;right=0;align=left;spacingLeft=6;fontStyle=5;overflow=hidden;" vertex="1" parent="CWw4QK-ktK1M6ZPqgGHz-38">
          <mxGeometry x="30" width="150" height="30" as="geometry" />
        </mxCell>
        <mxCell id="CWw4QK-ktK1M6ZPqgGHz-41" value="" style="shape=partialRectangle;collapsible=0;dropTarget=0;pointerEvents=0;fillColor=none;top=0;left=0;bottom=0;right=0;points=[[0,0.5],[1,0.5]];portConstraint=eastwest;" vertex="1" parent="CWw4QK-ktK1M6ZPqgGHz-37">
          <mxGeometry y="60" width="180" height="30" as="geometry" />
        </mxCell>
        <mxCell id="CWw4QK-ktK1M6ZPqgGHz-42" value="" style="shape=partialRectangle;connectable=0;fillColor=none;top=0;left=0;bottom=0;right=0;editable=1;overflow=hidden;" vertex="1" parent="CWw4QK-ktK1M6ZPqgGHz-41">
          <mxGeometry width="30" height="30" as="geometry" />
        </mxCell>
        <mxCell id="CWw4QK-ktK1M6ZPqgGHz-43" value="Height" style="shape=partialRectangle;connectable=0;fillColor=none;top=0;left=0;bottom=0;right=0;align=left;spacingLeft=6;overflow=hidden;" vertex="1" parent="CWw4QK-ktK1M6ZPqgGHz-41">
          <mxGeometry x="30" width="150" height="30" as="geometry" />
        </mxCell>
        <mxCell id="CWw4QK-ktK1M6ZPqgGHz-44" value="" style="shape=partialRectangle;collapsible=0;dropTarget=0;pointerEvents=0;fillColor=none;top=0;left=0;bottom=0;right=0;points=[[0,0.5],[1,0.5]];portConstraint=eastwest;" vertex="1" parent="CWw4QK-ktK1M6ZPqgGHz-37">
          <mxGeometry y="90" width="180" height="30" as="geometry" />
        </mxCell>
        <mxCell id="CWw4QK-ktK1M6ZPqgGHz-45" value="" style="shape=partialRectangle;connectable=0;fillColor=none;top=0;left=0;bottom=0;right=0;editable=1;overflow=hidden;" vertex="1" parent="CWw4QK-ktK1M6ZPqgGHz-44">
          <mxGeometry width="30" height="30" as="geometry" />
        </mxCell>
        <mxCell id="CWw4QK-ktK1M6ZPqgGHz-46" value="Body Fat" style="shape=partialRectangle;connectable=0;fillColor=none;top=0;left=0;bottom=0;right=0;align=left;spacingLeft=6;overflow=hidden;" vertex="1" parent="CWw4QK-ktK1M6ZPqgGHz-44">
          <mxGeometry x="30" width="150" height="30" as="geometry" />
        </mxCell>
        <mxCell id="CWw4QK-ktK1M6ZPqgGHz-47" value="" style="shape=partialRectangle;collapsible=0;dropTarget=0;pointerEvents=0;fillColor=none;top=0;left=0;bottom=0;right=0;points=[[0,0.5],[1,0.5]];portConstraint=eastwest;" vertex="1" parent="CWw4QK-ktK1M6ZPqgGHz-37">
          <mxGeometry y="120" width="180" height="30" as="geometry" />
        </mxCell>
        <mxCell id="CWw4QK-ktK1M6ZPqgGHz-48" value="" style="shape=partialRectangle;connectable=0;fillColor=none;top=0;left=0;bottom=0;right=0;editable=1;overflow=hidden;" vertex="1" parent="CWw4QK-ktK1M6ZPqgGHz-47">
          <mxGeometry width="30" height="30" as="geometry" />
        </mxCell>
        <mxCell id="CWw4QK-ktK1M6ZPqgGHz-49" value="Weight" style="shape=partialRectangle;connectable=0;fillColor=none;top=0;left=0;bottom=0;right=0;align=left;spacingLeft=6;overflow=hidden;" vertex="1" parent="CWw4QK-ktK1M6ZPqgGHz-47">
          <mxGeometry x="30" width="150" height="30" as="geometry" />
        </mxCell>
        <mxCell id="CWw4QK-ktK1M6ZPqgGHz-50" value="" style="shape=partialRectangle;collapsible=0;dropTarget=0;pointerEvents=0;fillColor=none;top=0;left=0;bottom=0;right=0;points=[[0,0.5],[1,0.5]];portConstraint=eastwest;" vertex="1" parent="CWw4QK-ktK1M6ZPqgGHz-37">
          <mxGeometry y="150" width="180" height="30" as="geometry" />
        </mxCell>
        <mxCell id="CWw4QK-ktK1M6ZPqgGHz-51" value="" style="shape=partialRectangle;connectable=0;fillColor=none;top=0;left=0;bottom=0;right=0;editable=1;overflow=hidden;" vertex="1" parent="CWw4QK-ktK1M6ZPqgGHz-50">
          <mxGeometry width="30" height="30" as="geometry" />
        </mxCell>
        <mxCell id="CWw4QK-ktK1M6ZPqgGHz-52" value="FFMI" style="shape=partialRectangle;connectable=0;fillColor=none;top=0;left=0;bottom=0;right=0;align=left;spacingLeft=6;overflow=hidden;" vertex="1" parent="CWw4QK-ktK1M6ZPqgGHz-50">
          <mxGeometry x="30" width="150" height="30" as="geometry" />
        </mxCell>
        <mxCell id="CWw4QK-ktK1M6ZPqgGHz-53" value="" style="shape=partialRectangle;collapsible=0;dropTarget=0;pointerEvents=0;fillColor=none;top=0;left=0;bottom=0;right=0;points=[[0,0.5],[1,0.5]];portConstraint=eastwest;" vertex="1" parent="CWw4QK-ktK1M6ZPqgGHz-37">
          <mxGeometry y="180" width="180" height="30" as="geometry" />
        </mxCell>
        <mxCell id="CWw4QK-ktK1M6ZPqgGHz-54" value="" style="shape=partialRectangle;connectable=0;fillColor=none;top=0;left=0;bottom=0;right=0;editable=1;overflow=hidden;" vertex="1" parent="CWw4QK-ktK1M6ZPqgGHz-53">
          <mxGeometry width="30" height="30" as="geometry" />
        </mxCell>
        <mxCell id="CWw4QK-ktK1M6ZPqgGHz-55" value="Age" style="shape=partialRectangle;connectable=0;fillColor=none;top=0;left=0;bottom=0;right=0;align=left;spacingLeft=6;overflow=hidden;" vertex="1" parent="CWw4QK-ktK1M6ZPqgGHz-53">
          <mxGeometry x="30" width="150" height="30" as="geometry" />
        </mxCell>
        <mxCell id="CWw4QK-ktK1M6ZPqgGHz-56" value="" style="shape=partialRectangle;collapsible=0;dropTarget=0;pointerEvents=0;fillColor=none;top=0;left=0;bottom=0;right=0;points=[[0,0.5],[1,0.5]];portConstraint=eastwest;" vertex="1" parent="CWw4QK-ktK1M6ZPqgGHz-37">
          <mxGeometry y="210" width="180" height="30" as="geometry" />
        </mxCell>
        <mxCell id="CWw4QK-ktK1M6ZPqgGHz-57" value="" style="shape=partialRectangle;connectable=0;fillColor=none;top=0;left=0;bottom=0;right=0;editable=1;overflow=hidden;" vertex="1" parent="CWw4QK-ktK1M6ZPqgGHz-56">
          <mxGeometry width="30" height="30" as="geometry" />
        </mxCell>
        <mxCell id="CWw4QK-ktK1M6ZPqgGHz-58" value="BMI" style="shape=partialRectangle;connectable=0;fillColor=none;top=0;left=0;bottom=0;right=0;align=left;spacingLeft=6;overflow=hidden;" vertex="1" parent="CWw4QK-ktK1M6ZPqgGHz-56">
          <mxGeometry x="30" width="150" height="30" as="geometry" />
        </mxCell>
        <mxCell id="CWw4QK-ktK1M6ZPqgGHz-59" value="Measurements" style="shape=table;startSize=30;container=1;collapsible=1;childLayout=tableLayout;fixedRows=1;rowLines=0;fontStyle=1;align=center;resizeLast=1;" vertex="1" parent="1">
          <mxGeometry x="990" y="40" width="180" height="375" as="geometry" />
        </mxCell>
        <mxCell id="CWw4QK-ktK1M6ZPqgGHz-60" value="" style="shape=partialRectangle;collapsible=0;dropTarget=0;pointerEvents=0;fillColor=none;top=0;left=0;bottom=1;right=0;points=[[0,0.5],[1,0.5]];portConstraint=eastwest;" vertex="1" parent="CWw4QK-ktK1M6ZPqgGHz-59">
          <mxGeometry y="30" width="180" height="30" as="geometry" />
        </mxCell>
        <mxCell id="CWw4QK-ktK1M6ZPqgGHz-61" value="FK" style="shape=partialRectangle;connectable=0;fillColor=none;top=0;left=0;bottom=0;right=0;fontStyle=1;overflow=hidden;" vertex="1" parent="CWw4QK-ktK1M6ZPqgGHz-60">
          <mxGeometry width="30" height="30" as="geometry" />
        </mxCell>
        <mxCell id="CWw4QK-ktK1M6ZPqgGHz-62" value="UserID" style="shape=partialRectangle;connectable=0;fillColor=none;top=0;left=0;bottom=0;right=0;align=left;spacingLeft=6;fontStyle=5;overflow=hidden;" vertex="1" parent="CWw4QK-ktK1M6ZPqgGHz-60">
          <mxGeometry x="30" width="150" height="30" as="geometry" />
        </mxCell>
        <mxCell id="CWw4QK-ktK1M6ZPqgGHz-63" value="" style="shape=partialRectangle;collapsible=0;dropTarget=0;pointerEvents=0;fillColor=none;top=0;left=0;bottom=0;right=0;points=[[0,0.5],[1,0.5]];portConstraint=eastwest;" vertex="1" parent="CWw4QK-ktK1M6ZPqgGHz-59">
          <mxGeometry y="60" width="180" height="30" as="geometry" />
        </mxCell>
        <mxCell id="CWw4QK-ktK1M6ZPqgGHz-64" value="" style="shape=partialRectangle;connectable=0;fillColor=none;top=0;left=0;bottom=0;right=0;editable=1;overflow=hidden;" vertex="1" parent="CWw4QK-ktK1M6ZPqgGHz-63">
          <mxGeometry width="30" height="30" as="geometry" />
        </mxCell>
        <mxCell id="CWw4QK-ktK1M6ZPqgGHz-65" value="Shoulders" style="shape=partialRectangle;connectable=0;fillColor=none;top=0;left=0;bottom=0;right=0;align=left;spacingLeft=6;overflow=hidden;" vertex="1" parent="CWw4QK-ktK1M6ZPqgGHz-63">
          <mxGeometry x="30" width="150" height="30" as="geometry" />
        </mxCell>
        <mxCell id="CWw4QK-ktK1M6ZPqgGHz-66" value="" style="shape=partialRectangle;collapsible=0;dropTarget=0;pointerEvents=0;fillColor=none;top=0;left=0;bottom=0;right=0;points=[[0,0.5],[1,0.5]];portConstraint=eastwest;" vertex="1" parent="CWw4QK-ktK1M6ZPqgGHz-59">
          <mxGeometry y="90" width="180" height="30" as="geometry" />
        </mxCell>
        <mxCell id="CWw4QK-ktK1M6ZPqgGHz-67" value="" style="shape=partialRectangle;connectable=0;fillColor=none;top=0;left=0;bottom=0;right=0;editable=1;overflow=hidden;" vertex="1" parent="CWw4QK-ktK1M6ZPqgGHz-66">
          <mxGeometry width="30" height="30" as="geometry" />
        </mxCell>
        <mxCell id="CWw4QK-ktK1M6ZPqgGHz-68" value="Arms" style="shape=partialRectangle;connectable=0;fillColor=none;top=0;left=0;bottom=0;right=0;align=left;spacingLeft=6;overflow=hidden;" vertex="1" parent="CWw4QK-ktK1M6ZPqgGHz-66">
          <mxGeometry x="30" width="150" height="30" as="geometry" />
        </mxCell>
        <mxCell id="CWw4QK-ktK1M6ZPqgGHz-69" value="" style="shape=partialRectangle;collapsible=0;dropTarget=0;pointerEvents=0;fillColor=none;top=0;left=0;bottom=0;right=0;points=[[0,0.5],[1,0.5]];portConstraint=eastwest;" vertex="1" parent="CWw4QK-ktK1M6ZPqgGHz-59">
          <mxGeometry y="120" width="180" height="30" as="geometry" />
        </mxCell>
        <mxCell id="CWw4QK-ktK1M6ZPqgGHz-70" value="" style="shape=partialRectangle;connectable=0;fillColor=none;top=0;left=0;bottom=0;right=0;editable=1;overflow=hidden;" vertex="1" parent="CWw4QK-ktK1M6ZPqgGHz-69">
          <mxGeometry width="30" height="30" as="geometry" />
        </mxCell>
        <mxCell id="CWw4QK-ktK1M6ZPqgGHz-71" value="Forearms" style="shape=partialRectangle;connectable=0;fillColor=none;top=0;left=0;bottom=0;right=0;align=left;spacingLeft=6;overflow=hidden;" vertex="1" parent="CWw4QK-ktK1M6ZPqgGHz-69">
          <mxGeometry x="30" width="150" height="30" as="geometry" />
        </mxCell>
        <mxCell id="CWw4QK-ktK1M6ZPqgGHz-72" value="" style="shape=partialRectangle;collapsible=0;dropTarget=0;pointerEvents=0;fillColor=none;top=0;left=0;bottom=0;right=0;points=[[0,0.5],[1,0.5]];portConstraint=eastwest;" vertex="1" parent="CWw4QK-ktK1M6ZPqgGHz-59">
          <mxGeometry y="150" width="180" height="30" as="geometry" />
        </mxCell>
        <mxCell id="CWw4QK-ktK1M6ZPqgGHz-73" value="" style="shape=partialRectangle;connectable=0;fillColor=none;top=0;left=0;bottom=0;right=0;editable=1;overflow=hidden;" vertex="1" parent="CWw4QK-ktK1M6ZPqgGHz-72">
          <mxGeometry width="30" height="30" as="geometry" />
        </mxCell>
        <mxCell id="CWw4QK-ktK1M6ZPqgGHz-74" value="Chest" style="shape=partialRectangle;connectable=0;fillColor=none;top=0;left=0;bottom=0;right=0;align=left;spacingLeft=6;overflow=hidden;" vertex="1" parent="CWw4QK-ktK1M6ZPqgGHz-72">
          <mxGeometry x="30" width="150" height="30" as="geometry" />
        </mxCell>
        <mxCell id="CWw4QK-ktK1M6ZPqgGHz-75" value="" style="shape=partialRectangle;collapsible=0;dropTarget=0;pointerEvents=0;fillColor=none;top=0;left=0;bottom=0;right=0;points=[[0,0.5],[1,0.5]];portConstraint=eastwest;" vertex="1" parent="CWw4QK-ktK1M6ZPqgGHz-59">
          <mxGeometry y="180" width="180" height="30" as="geometry" />
        </mxCell>
        <mxCell id="CWw4QK-ktK1M6ZPqgGHz-76" value="" style="shape=partialRectangle;connectable=0;fillColor=none;top=0;left=0;bottom=0;right=0;editable=1;overflow=hidden;" vertex="1" parent="CWw4QK-ktK1M6ZPqgGHz-75">
          <mxGeometry width="30" height="30" as="geometry" />
        </mxCell>
        <mxCell id="CWw4QK-ktK1M6ZPqgGHz-77" value="Waist" style="shape=partialRectangle;connectable=0;fillColor=none;top=0;left=0;bottom=0;right=0;align=left;spacingLeft=6;overflow=hidden;" vertex="1" parent="CWw4QK-ktK1M6ZPqgGHz-75">
          <mxGeometry x="30" width="150" height="30" as="geometry" />
        </mxCell>
        <mxCell id="CWw4QK-ktK1M6ZPqgGHz-78" value="" style="shape=partialRectangle;collapsible=0;dropTarget=0;pointerEvents=0;fillColor=none;top=0;left=0;bottom=0;right=0;points=[[0,0.5],[1,0.5]];portConstraint=eastwest;" vertex="1" parent="CWw4QK-ktK1M6ZPqgGHz-59">
          <mxGeometry y="210" width="180" height="30" as="geometry" />
        </mxCell>
        <mxCell id="CWw4QK-ktK1M6ZPqgGHz-79" value="" style="shape=partialRectangle;connectable=0;fillColor=none;top=0;left=0;bottom=0;right=0;editable=1;overflow=hidden;" vertex="1" parent="CWw4QK-ktK1M6ZPqgGHz-78">
          <mxGeometry width="30" height="30" as="geometry" />
        </mxCell>
        <mxCell id="CWw4QK-ktK1M6ZPqgGHz-80" value="Hips" style="shape=partialRectangle;connectable=0;fillColor=none;top=0;left=0;bottom=0;right=0;align=left;spacingLeft=6;overflow=hidden;" vertex="1" parent="CWw4QK-ktK1M6ZPqgGHz-78">
          <mxGeometry x="30" width="150" height="30" as="geometry" />
        </mxCell>
        <mxCell id="CWw4QK-ktK1M6ZPqgGHz-81" value="" style="shape=partialRectangle;collapsible=0;dropTarget=0;pointerEvents=0;fillColor=none;top=0;left=0;bottom=0;right=0;points=[[0,0.5],[1,0.5]];portConstraint=eastwest;" vertex="1" parent="CWw4QK-ktK1M6ZPqgGHz-59">
          <mxGeometry y="240" width="180" height="30" as="geometry" />
        </mxCell>
        <mxCell id="CWw4QK-ktK1M6ZPqgGHz-82" value="" style="shape=partialRectangle;connectable=0;fillColor=none;top=0;left=0;bottom=0;right=0;editable=1;overflow=hidden;" vertex="1" parent="CWw4QK-ktK1M6ZPqgGHz-81">
          <mxGeometry width="30" height="30" as="geometry" />
        </mxCell>
        <mxCell id="CWw4QK-ktK1M6ZPqgGHz-83" value="Thighs" style="shape=partialRectangle;connectable=0;fillColor=none;top=0;left=0;bottom=0;right=0;align=left;spacingLeft=6;overflow=hidden;" vertex="1" parent="CWw4QK-ktK1M6ZPqgGHz-81">
          <mxGeometry x="30" width="150" height="30" as="geometry" />
        </mxCell>
        <mxCell id="CWw4QK-ktK1M6ZPqgGHz-84" value="" style="shape=partialRectangle;collapsible=0;dropTarget=0;pointerEvents=0;fillColor=none;top=0;left=0;bottom=0;right=0;points=[[0,0.5],[1,0.5]];portConstraint=eastwest;" vertex="1" parent="CWw4QK-ktK1M6ZPqgGHz-59">
          <mxGeometry y="270" width="180" height="30" as="geometry" />
        </mxCell>
        <mxCell id="CWw4QK-ktK1M6ZPqgGHz-85" value="" style="shape=partialRectangle;connectable=0;fillColor=none;top=0;left=0;bottom=0;right=0;editable=1;overflow=hidden;" vertex="1" parent="CWw4QK-ktK1M6ZPqgGHz-84">
          <mxGeometry width="30" height="30" as="geometry" />
        </mxCell>
        <mxCell id="CWw4QK-ktK1M6ZPqgGHz-86" value="Calves" style="shape=partialRectangle;connectable=0;fillColor=none;top=0;left=0;bottom=0;right=0;align=left;spacingLeft=6;overflow=hidden;" vertex="1" parent="CWw4QK-ktK1M6ZPqgGHz-84">
          <mxGeometry x="30" width="150" height="30" as="geometry" />
        </mxCell>
        <mxCell id="CWw4QK-ktK1M6ZPqgGHz-87" value="" style="shape=partialRectangle;collapsible=0;dropTarget=0;pointerEvents=0;fillColor=none;top=0;left=0;bottom=0;right=0;points=[[0,0.5],[1,0.5]];portConstraint=eastwest;" vertex="1" parent="CWw4QK-ktK1M6ZPqgGHz-59">
          <mxGeometry y="300" width="180" height="30" as="geometry" />
        </mxCell>
        <mxCell id="CWw4QK-ktK1M6ZPqgGHz-88" value="" style="shape=partialRectangle;connectable=0;fillColor=none;top=0;left=0;bottom=0;right=0;editable=1;overflow=hidden;" vertex="1" parent="CWw4QK-ktK1M6ZPqgGHz-87">
          <mxGeometry width="30" height="30" as="geometry" />
        </mxCell>
        <mxCell id="CWw4QK-ktK1M6ZPqgGHz-89" value="Ankle" style="shape=partialRectangle;connectable=0;fillColor=none;top=0;left=0;bottom=0;right=0;align=left;spacingLeft=6;overflow=hidden;" vertex="1" parent="CWw4QK-ktK1M6ZPqgGHz-87">
          <mxGeometry x="30" width="150" height="30" as="geometry" />
        </mxCell>
        <mxCell id="CWw4QK-ktK1M6ZPqgGHz-90" value="" style="shape=partialRectangle;collapsible=0;dropTarget=0;pointerEvents=0;fillColor=none;top=0;left=0;bottom=0;right=0;points=[[0,0.5],[1,0.5]];portConstraint=eastwest;" vertex="1" parent="CWw4QK-ktK1M6ZPqgGHz-59">
          <mxGeometry y="330" width="180" height="35" as="geometry" />
        </mxCell>
        <mxCell id="CWw4QK-ktK1M6ZPqgGHz-91" value="" style="shape=partialRectangle;connectable=0;fillColor=none;top=0;left=0;bottom=0;right=0;editable=1;overflow=hidden;" vertex="1" parent="CWw4QK-ktK1M6ZPqgGHz-90">
          <mxGeometry width="30" height="35" as="geometry" />
        </mxCell>
        <mxCell id="CWw4QK-ktK1M6ZPqgGHz-92" value="Wrist" style="shape=partialRectangle;connectable=0;fillColor=none;top=0;left=0;bottom=0;right=0;align=left;spacingLeft=6;overflow=hidden;" vertex="1" parent="CWw4QK-ktK1M6ZPqgGHz-90">
          <mxGeometry x="30" width="150" height="35" as="geometry" />
        </mxCell>
        <mxCell id="CWw4QK-ktK1M6ZPqgGHz-96" value="Goals" style="shape=table;startSize=30;container=1;collapsible=1;childLayout=tableLayout;fixedRows=1;rowLines=0;fontStyle=1;align=center;resizeLast=1;" vertex="1" parent="1">
          <mxGeometry x="300" y="190" width="180" height="160" as="geometry" />
        </mxCell>
        <mxCell id="CWw4QK-ktK1M6ZPqgGHz-97" value="" style="shape=partialRectangle;collapsible=0;dropTarget=0;pointerEvents=0;fillColor=none;top=0;left=0;bottom=1;right=0;points=[[0,0.5],[1,0.5]];portConstraint=eastwest;" vertex="1" parent="CWw4QK-ktK1M6ZPqgGHz-96">
          <mxGeometry y="30" width="180" height="30" as="geometry" />
        </mxCell>
        <mxCell id="CWw4QK-ktK1M6ZPqgGHz-98" value="FK" style="shape=partialRectangle;connectable=0;fillColor=none;top=0;left=0;bottom=0;right=0;fontStyle=1;overflow=hidden;" vertex="1" parent="CWw4QK-ktK1M6ZPqgGHz-97">
          <mxGeometry width="30" height="30" as="geometry" />
        </mxCell>
        <mxCell id="CWw4QK-ktK1M6ZPqgGHz-99" value="UserID" style="shape=partialRectangle;connectable=0;fillColor=none;top=0;left=0;bottom=0;right=0;align=left;spacingLeft=6;fontStyle=5;overflow=hidden;" vertex="1" parent="CWw4QK-ktK1M6ZPqgGHz-97">
          <mxGeometry x="30" width="150" height="30" as="geometry" />
        </mxCell>
        <mxCell id="CWw4QK-ktK1M6ZPqgGHz-100" value="" style="shape=partialRectangle;collapsible=0;dropTarget=0;pointerEvents=0;fillColor=none;top=0;left=0;bottom=0;right=0;points=[[0,0.5],[1,0.5]];portConstraint=eastwest;" vertex="1" parent="CWw4QK-ktK1M6ZPqgGHz-96">
          <mxGeometry y="60" width="180" height="30" as="geometry" />
        </mxCell>
        <mxCell id="CWw4QK-ktK1M6ZPqgGHz-101" value="" style="shape=partialRectangle;connectable=0;fillColor=none;top=0;left=0;bottom=0;right=0;editable=1;overflow=hidden;" vertex="1" parent="CWw4QK-ktK1M6ZPqgGHz-100">
          <mxGeometry width="30" height="30" as="geometry" />
        </mxCell>
        <mxCell id="CWw4QK-ktK1M6ZPqgGHz-102" value="Weight" style="shape=partialRectangle;connectable=0;fillColor=none;top=0;left=0;bottom=0;right=0;align=left;spacingLeft=6;overflow=hidden;" vertex="1" parent="CWw4QK-ktK1M6ZPqgGHz-100">
          <mxGeometry x="30" width="150" height="30" as="geometry" />
        </mxCell>
        <mxCell id="CWw4QK-ktK1M6ZPqgGHz-103" value="" style="shape=partialRectangle;collapsible=0;dropTarget=0;pointerEvents=0;fillColor=none;top=0;left=0;bottom=0;right=0;points=[[0,0.5],[1,0.5]];portConstraint=eastwest;" vertex="1" parent="CWw4QK-ktK1M6ZPqgGHz-96">
          <mxGeometry y="90" width="180" height="30" as="geometry" />
        </mxCell>
        <mxCell id="CWw4QK-ktK1M6ZPqgGHz-104" value="" style="shape=partialRectangle;connectable=0;fillColor=none;top=0;left=0;bottom=0;right=0;editable=1;overflow=hidden;" vertex="1" parent="CWw4QK-ktK1M6ZPqgGHz-103">
          <mxGeometry width="30" height="30" as="geometry" />
        </mxCell>
        <mxCell id="CWw4QK-ktK1M6ZPqgGHz-105" value="Body Fat" style="shape=partialRectangle;connectable=0;fillColor=none;top=0;left=0;bottom=0;right=0;align=left;spacingLeft=6;overflow=hidden;" vertex="1" parent="CWw4QK-ktK1M6ZPqgGHz-103">
          <mxGeometry x="30" width="150" height="30" as="geometry" />
        </mxCell>
        <mxCell id="CWw4QK-ktK1M6ZPqgGHz-106" value="" style="shape=partialRectangle;collapsible=0;dropTarget=0;pointerEvents=0;fillColor=none;top=0;left=0;bottom=0;right=0;points=[[0,0.5],[1,0.5]];portConstraint=eastwest;" vertex="1" parent="CWw4QK-ktK1M6ZPqgGHz-96">
          <mxGeometry y="120" width="180" height="30" as="geometry" />
        </mxCell>
        <mxCell id="CWw4QK-ktK1M6ZPqgGHz-107" value="" style="shape=partialRectangle;connectable=0;fillColor=none;top=0;left=0;bottom=0;right=0;editable=1;overflow=hidden;" vertex="1" parent="CWw4QK-ktK1M6ZPqgGHz-106">
          <mxGeometry width="30" height="30" as="geometry" />
        </mxCell>
        <mxCell id="CWw4QK-ktK1M6ZPqgGHz-108" value="Date" style="shape=partialRectangle;connectable=0;fillColor=none;top=0;left=0;bottom=0;right=0;align=left;spacingLeft=6;overflow=hidden;" vertex="1" parent="CWw4QK-ktK1M6ZPqgGHz-106">
          <mxGeometry x="30" width="150" height="30" as="geometry" />
        </mxCell>
        <mxCell id="CWw4QK-ktK1M6ZPqgGHz-109" value="Diet" style="shape=table;startSize=30;container=1;collapsible=1;childLayout=tableLayout;fixedRows=1;rowLines=0;fontStyle=1;align=center;resizeLast=1;" vertex="1" parent="1">
          <mxGeometry x="300" y="370" width="180" height="190" as="geometry" />
        </mxCell>
        <mxCell id="CWw4QK-ktK1M6ZPqgGHz-225" value="" style="shape=partialRectangle;collapsible=0;dropTarget=0;pointerEvents=0;fillColor=none;top=0;left=0;bottom=0;right=0;points=[[0,0.5],[1,0.5]];portConstraint=eastwest;" vertex="1" parent="CWw4QK-ktK1M6ZPqgGHz-109">
          <mxGeometry y="30" width="180" height="30" as="geometry" />
        </mxCell>
        <mxCell id="CWw4QK-ktK1M6ZPqgGHz-226" value="FK" style="shape=partialRectangle;connectable=0;fillColor=none;top=0;left=0;bottom=0;right=0;fontStyle=0;overflow=hidden;" vertex="1" parent="CWw4QK-ktK1M6ZPqgGHz-225">
          <mxGeometry width="30" height="30" as="geometry" />
        </mxCell>
        <mxCell id="CWw4QK-ktK1M6ZPqgGHz-227" value="UserID" style="shape=partialRectangle;connectable=0;fillColor=none;top=0;left=0;bottom=0;right=0;align=left;spacingLeft=6;fontStyle=0;overflow=hidden;" vertex="1" parent="CWw4QK-ktK1M6ZPqgGHz-225">
          <mxGeometry x="30" width="150" height="30" as="geometry" />
        </mxCell>
        <mxCell id="CWw4QK-ktK1M6ZPqgGHz-110" value="" style="shape=partialRectangle;collapsible=0;dropTarget=0;pointerEvents=0;fillColor=none;top=0;left=0;bottom=1;right=0;points=[[0,0.5],[1,0.5]];portConstraint=eastwest;" vertex="1" parent="CWw4QK-ktK1M6ZPqgGHz-109">
          <mxGeometry y="60" width="180" height="30" as="geometry" />
        </mxCell>
        <mxCell id="CWw4QK-ktK1M6ZPqgGHz-111" value="PK" style="shape=partialRectangle;connectable=0;fillColor=none;top=0;left=0;bottom=0;right=0;fontStyle=1;overflow=hidden;" vertex="1" parent="CWw4QK-ktK1M6ZPqgGHz-110">
          <mxGeometry width="30" height="30" as="geometry" />
        </mxCell>
        <mxCell id="CWw4QK-ktK1M6ZPqgGHz-112" value="DietID" style="shape=partialRectangle;connectable=0;fillColor=none;top=0;left=0;bottom=0;right=0;align=left;spacingLeft=6;fontStyle=5;overflow=hidden;" vertex="1" parent="CWw4QK-ktK1M6ZPqgGHz-110">
          <mxGeometry x="30" width="150" height="30" as="geometry" />
        </mxCell>
        <mxCell id="CWw4QK-ktK1M6ZPqgGHz-113" value="" style="shape=partialRectangle;collapsible=0;dropTarget=0;pointerEvents=0;fillColor=none;top=0;left=0;bottom=0;right=0;points=[[0,0.5],[1,0.5]];portConstraint=eastwest;" vertex="1" parent="CWw4QK-ktK1M6ZPqgGHz-109">
          <mxGeometry y="90" width="180" height="30" as="geometry" />
        </mxCell>
        <mxCell id="CWw4QK-ktK1M6ZPqgGHz-114" value="" style="shape=partialRectangle;connectable=0;fillColor=none;top=0;left=0;bottom=0;right=0;editable=1;overflow=hidden;" vertex="1" parent="CWw4QK-ktK1M6ZPqgGHz-113">
          <mxGeometry width="30" height="30" as="geometry" />
        </mxCell>
        <mxCell id="CWw4QK-ktK1M6ZPqgGHz-115" value="Quantity" style="shape=partialRectangle;connectable=0;fillColor=none;top=0;left=0;bottom=0;right=0;align=left;spacingLeft=6;overflow=hidden;" vertex="1" parent="CWw4QK-ktK1M6ZPqgGHz-113">
          <mxGeometry x="30" width="150" height="30" as="geometry" />
        </mxCell>
        <mxCell id="CWw4QK-ktK1M6ZPqgGHz-116" value="" style="shape=partialRectangle;collapsible=0;dropTarget=0;pointerEvents=0;fillColor=none;top=0;left=0;bottom=0;right=0;points=[[0,0.5],[1,0.5]];portConstraint=eastwest;" vertex="1" parent="CWw4QK-ktK1M6ZPqgGHz-109">
          <mxGeometry y="120" width="180" height="30" as="geometry" />
        </mxCell>
        <mxCell id="CWw4QK-ktK1M6ZPqgGHz-117" value="" style="shape=partialRectangle;connectable=0;fillColor=none;top=0;left=0;bottom=0;right=0;editable=1;overflow=hidden;" vertex="1" parent="CWw4QK-ktK1M6ZPqgGHz-116">
          <mxGeometry width="30" height="30" as="geometry" />
        </mxCell>
        <mxCell id="CWw4QK-ktK1M6ZPqgGHz-118" value="Day" style="shape=partialRectangle;connectable=0;fillColor=none;top=0;left=0;bottom=0;right=0;align=left;spacingLeft=6;overflow=hidden;" vertex="1" parent="CWw4QK-ktK1M6ZPqgGHz-116">
          <mxGeometry x="30" width="150" height="30" as="geometry" />
        </mxCell>
        <mxCell id="CWw4QK-ktK1M6ZPqgGHz-119" value="" style="shape=partialRectangle;collapsible=0;dropTarget=0;pointerEvents=0;fillColor=none;top=0;left=0;bottom=0;right=0;points=[[0,0.5],[1,0.5]];portConstraint=eastwest;" vertex="1" parent="CWw4QK-ktK1M6ZPqgGHz-109">
          <mxGeometry y="150" width="180" height="30" as="geometry" />
        </mxCell>
        <mxCell id="CWw4QK-ktK1M6ZPqgGHz-120" value="" style="shape=partialRectangle;connectable=0;fillColor=none;top=0;left=0;bottom=0;right=0;editable=1;overflow=hidden;" vertex="1" parent="CWw4QK-ktK1M6ZPqgGHz-119">
          <mxGeometry width="30" height="30" as="geometry" />
        </mxCell>
        <mxCell id="CWw4QK-ktK1M6ZPqgGHz-121" value="Time" style="shape=partialRectangle;connectable=0;fillColor=none;top=0;left=0;bottom=0;right=0;align=left;spacingLeft=6;overflow=hidden;" vertex="1" parent="CWw4QK-ktK1M6ZPqgGHz-119">
          <mxGeometry x="30" width="150" height="30" as="geometry" />
        </mxCell>
        <mxCell id="CWw4QK-ktK1M6ZPqgGHz-141" value="Workout Routine" style="shape=table;startSize=30;container=1;collapsible=1;childLayout=tableLayout;fixedRows=1;rowLines=0;fontStyle=1;align=center;resizeLast=1;" vertex="1" parent="1">
          <mxGeometry x="300" y="580" width="180" height="160" as="geometry" />
        </mxCell>
        <mxCell id="CWw4QK-ktK1M6ZPqgGHz-217" value="" style="shape=partialRectangle;collapsible=0;dropTarget=0;pointerEvents=0;fillColor=none;top=0;left=0;bottom=0;right=0;points=[[0,0.5],[1,0.5]];portConstraint=eastwest;" vertex="1" parent="CWw4QK-ktK1M6ZPqgGHz-141">
          <mxGeometry y="30" width="180" height="30" as="geometry" />
        </mxCell>
        <mxCell id="CWw4QK-ktK1M6ZPqgGHz-218" value="FK" style="shape=partialRectangle;connectable=0;fillColor=none;top=0;left=0;bottom=0;right=0;fontStyle=0;overflow=hidden;" vertex="1" parent="CWw4QK-ktK1M6ZPqgGHz-217">
          <mxGeometry width="30" height="30" as="geometry" />
        </mxCell>
        <mxCell id="CWw4QK-ktK1M6ZPqgGHz-219" value="UserID" style="shape=partialRectangle;connectable=0;fillColor=none;top=0;left=0;bottom=0;right=0;align=left;spacingLeft=6;fontStyle=0;overflow=hidden;" vertex="1" parent="CWw4QK-ktK1M6ZPqgGHz-217">
          <mxGeometry x="30" width="150" height="30" as="geometry" />
        </mxCell>
        <mxCell id="CWw4QK-ktK1M6ZPqgGHz-142" value="" style="shape=partialRectangle;collapsible=0;dropTarget=0;pointerEvents=0;fillColor=none;top=0;left=0;bottom=1;right=0;points=[[0,0.5],[1,0.5]];portConstraint=eastwest;" vertex="1" parent="CWw4QK-ktK1M6ZPqgGHz-141">
          <mxGeometry y="60" width="180" height="30" as="geometry" />
        </mxCell>
        <mxCell id="CWw4QK-ktK1M6ZPqgGHz-143" value="PK" style="shape=partialRectangle;connectable=0;fillColor=none;top=0;left=0;bottom=0;right=0;fontStyle=1;overflow=hidden;" vertex="1" parent="CWw4QK-ktK1M6ZPqgGHz-142">
          <mxGeometry width="30" height="30" as="geometry" />
        </mxCell>
        <mxCell id="CWw4QK-ktK1M6ZPqgGHz-144" value="WorkoutID" style="shape=partialRectangle;connectable=0;fillColor=none;top=0;left=0;bottom=0;right=0;align=left;spacingLeft=6;fontStyle=5;overflow=hidden;" vertex="1" parent="CWw4QK-ktK1M6ZPqgGHz-142">
          <mxGeometry x="30" width="150" height="30" as="geometry" />
        </mxCell>
        <mxCell id="CWw4QK-ktK1M6ZPqgGHz-145" value="" style="shape=partialRectangle;collapsible=0;dropTarget=0;pointerEvents=0;fillColor=none;top=0;left=0;bottom=0;right=0;points=[[0,0.5],[1,0.5]];portConstraint=eastwest;" vertex="1" parent="CWw4QK-ktK1M6ZPqgGHz-141">
          <mxGeometry y="90" width="180" height="30" as="geometry" />
        </mxCell>
        <mxCell id="CWw4QK-ktK1M6ZPqgGHz-146" value="" style="shape=partialRectangle;connectable=0;fillColor=none;top=0;left=0;bottom=0;right=0;editable=1;overflow=hidden;" vertex="1" parent="CWw4QK-ktK1M6ZPqgGHz-145">
          <mxGeometry width="30" height="30" as="geometry" />
        </mxCell>
        <mxCell id="CWw4QK-ktK1M6ZPqgGHz-147" value="Author" style="shape=partialRectangle;connectable=0;fillColor=none;top=0;left=0;bottom=0;right=0;align=left;spacingLeft=6;overflow=hidden;" vertex="1" parent="CWw4QK-ktK1M6ZPqgGHz-145">
          <mxGeometry x="30" width="150" height="30" as="geometry" />
        </mxCell>
        <mxCell id="CWw4QK-ktK1M6ZPqgGHz-148" value="" style="shape=partialRectangle;collapsible=0;dropTarget=0;pointerEvents=0;fillColor=none;top=0;left=0;bottom=0;right=0;points=[[0,0.5],[1,0.5]];portConstraint=eastwest;" vertex="1" parent="CWw4QK-ktK1M6ZPqgGHz-141">
          <mxGeometry y="120" width="180" height="30" as="geometry" />
        </mxCell>
        <mxCell id="CWw4QK-ktK1M6ZPqgGHz-149" value="" style="shape=partialRectangle;connectable=0;fillColor=none;top=0;left=0;bottom=0;right=0;editable=1;overflow=hidden;" vertex="1" parent="CWw4QK-ktK1M6ZPqgGHz-148">
          <mxGeometry width="30" height="30" as="geometry" />
        </mxCell>
        <mxCell id="CWw4QK-ktK1M6ZPqgGHz-150" value="Days/Week" style="shape=partialRectangle;connectable=0;fillColor=none;top=0;left=0;bottom=0;right=0;align=left;spacingLeft=6;overflow=hidden;" vertex="1" parent="CWw4QK-ktK1M6ZPqgGHz-148">
          <mxGeometry x="30" width="150" height="30" as="geometry" />
        </mxCell>
        <mxCell id="CWw4QK-ktK1M6ZPqgGHz-154" value="Exercise" style="shape=table;startSize=30;container=1;collapsible=1;childLayout=tableLayout;fixedRows=1;rowLines=0;fontStyle=1;align=center;resizeLast=1;" vertex="1" parent="1">
          <mxGeometry x="800" y="565" width="180" height="190" as="geometry" />
        </mxCell>
        <mxCell id="CWw4QK-ktK1M6ZPqgGHz-265" value="" style="shape=partialRectangle;collapsible=0;dropTarget=0;pointerEvents=0;fillColor=none;top=0;left=0;bottom=0;right=0;points=[[0,0.5],[1,0.5]];portConstraint=eastwest;startSize=0;" vertex="1" parent="CWw4QK-ktK1M6ZPqgGHz-154">
          <mxGeometry y="30" width="180" height="30" as="geometry" />
        </mxCell>
        <mxCell id="CWw4QK-ktK1M6ZPqgGHz-266" value="FK" style="shape=partialRectangle;connectable=0;fillColor=none;top=0;left=0;bottom=0;right=0;fontStyle=0;overflow=hidden;" vertex="1" parent="CWw4QK-ktK1M6ZPqgGHz-265">
          <mxGeometry width="30" height="30" as="geometry" />
        </mxCell>
        <mxCell id="CWw4QK-ktK1M6ZPqgGHz-267" value="WorkoutID" style="shape=partialRectangle;connectable=0;fillColor=none;top=0;left=0;bottom=0;right=0;align=left;spacingLeft=6;fontStyle=0;overflow=hidden;" vertex="1" parent="CWw4QK-ktK1M6ZPqgGHz-265">
          <mxGeometry x="30" width="150" height="30" as="geometry" />
        </mxCell>
        <mxCell id="CWw4QK-ktK1M6ZPqgGHz-155" value="" style="shape=partialRectangle;collapsible=0;dropTarget=0;pointerEvents=0;fillColor=none;top=0;left=0;bottom=1;right=0;points=[[0,0.5],[1,0.5]];portConstraint=eastwest;" vertex="1" parent="CWw4QK-ktK1M6ZPqgGHz-154">
          <mxGeometry y="60" width="180" height="30" as="geometry" />
        </mxCell>
        <mxCell id="CWw4QK-ktK1M6ZPqgGHz-156" value="PK" style="shape=partialRectangle;connectable=0;fillColor=none;top=0;left=0;bottom=0;right=0;fontStyle=1;overflow=hidden;" vertex="1" parent="CWw4QK-ktK1M6ZPqgGHz-155">
          <mxGeometry width="30" height="30" as="geometry" />
        </mxCell>
        <mxCell id="CWw4QK-ktK1M6ZPqgGHz-157" value="ExerciseID" style="shape=partialRectangle;connectable=0;fillColor=none;top=0;left=0;bottom=0;right=0;align=left;spacingLeft=6;fontStyle=5;overflow=hidden;" vertex="1" parent="CWw4QK-ktK1M6ZPqgGHz-155">
          <mxGeometry x="30" width="150" height="30" as="geometry" />
        </mxCell>
        <mxCell id="CWw4QK-ktK1M6ZPqgGHz-158" value="" style="shape=partialRectangle;collapsible=0;dropTarget=0;pointerEvents=0;fillColor=none;top=0;left=0;bottom=0;right=0;points=[[0,0.5],[1,0.5]];portConstraint=eastwest;" vertex="1" parent="CWw4QK-ktK1M6ZPqgGHz-154">
          <mxGeometry y="90" width="180" height="30" as="geometry" />
        </mxCell>
        <mxCell id="CWw4QK-ktK1M6ZPqgGHz-159" value="" style="shape=partialRectangle;connectable=0;fillColor=none;top=0;left=0;bottom=0;right=0;editable=1;overflow=hidden;" vertex="1" parent="CWw4QK-ktK1M6ZPqgGHz-158">
          <mxGeometry width="30" height="30" as="geometry" />
        </mxCell>
        <mxCell id="CWw4QK-ktK1M6ZPqgGHz-160" value="Calories" style="shape=partialRectangle;connectable=0;fillColor=none;top=0;left=0;bottom=0;right=0;align=left;spacingLeft=6;overflow=hidden;" vertex="1" parent="CWw4QK-ktK1M6ZPqgGHz-158">
          <mxGeometry x="30" width="150" height="30" as="geometry" />
        </mxCell>
        <mxCell id="CWw4QK-ktK1M6ZPqgGHz-161" value="" style="shape=partialRectangle;collapsible=0;dropTarget=0;pointerEvents=0;fillColor=none;top=0;left=0;bottom=0;right=0;points=[[0,0.5],[1,0.5]];portConstraint=eastwest;" vertex="1" parent="CWw4QK-ktK1M6ZPqgGHz-154">
          <mxGeometry y="120" width="180" height="30" as="geometry" />
        </mxCell>
        <mxCell id="CWw4QK-ktK1M6ZPqgGHz-162" value="" style="shape=partialRectangle;connectable=0;fillColor=none;top=0;left=0;bottom=0;right=0;editable=1;overflow=hidden;" vertex="1" parent="CWw4QK-ktK1M6ZPqgGHz-161">
          <mxGeometry width="30" height="30" as="geometry" />
        </mxCell>
        <mxCell id="CWw4QK-ktK1M6ZPqgGHz-163" value="Name" style="shape=partialRectangle;connectable=0;fillColor=none;top=0;left=0;bottom=0;right=0;align=left;spacingLeft=6;overflow=hidden;" vertex="1" parent="CWw4QK-ktK1M6ZPqgGHz-161">
          <mxGeometry x="30" width="150" height="30" as="geometry" />
        </mxCell>
        <mxCell id="CWw4QK-ktK1M6ZPqgGHz-164" value="" style="shape=partialRectangle;collapsible=0;dropTarget=0;pointerEvents=0;fillColor=none;top=0;left=0;bottom=0;right=0;points=[[0,0.5],[1,0.5]];portConstraint=eastwest;" vertex="1" parent="CWw4QK-ktK1M6ZPqgGHz-154">
          <mxGeometry y="150" width="180" height="30" as="geometry" />
        </mxCell>
        <mxCell id="CWw4QK-ktK1M6ZPqgGHz-165" value="" style="shape=partialRectangle;connectable=0;fillColor=none;top=0;left=0;bottom=0;right=0;editable=1;overflow=hidden;" vertex="1" parent="CWw4QK-ktK1M6ZPqgGHz-164">
          <mxGeometry width="30" height="30" as="geometry" />
        </mxCell>
        <mxCell id="CWw4QK-ktK1M6ZPqgGHz-166" value="Type" style="shape=partialRectangle;connectable=0;fillColor=none;top=0;left=0;bottom=0;right=0;align=left;spacingLeft=6;overflow=hidden;" vertex="1" parent="CWw4QK-ktK1M6ZPqgGHz-164">
          <mxGeometry x="30" width="150" height="30" as="geometry" />
        </mxCell>
        <mxCell id="CWw4QK-ktK1M6ZPqgGHz-167" value="Workout" style="shape=table;startSize=30;container=1;collapsible=1;childLayout=tableLayout;fixedRows=1;rowLines=0;fontStyle=1;align=center;resizeLast=1;" vertex="1" parent="1">
          <mxGeometry x="560" y="680" width="180" height="190" as="geometry" />
        </mxCell>
        <mxCell id="CWw4QK-ktK1M6ZPqgGHz-168" value="" style="shape=partialRectangle;collapsible=0;dropTarget=0;pointerEvents=0;fillColor=none;top=0;left=0;bottom=1;right=0;points=[[0,0.5],[1,0.5]];portConstraint=eastwest;" vertex="1" parent="CWw4QK-ktK1M6ZPqgGHz-167">
          <mxGeometry y="30" width="180" height="30" as="geometry" />
        </mxCell>
        <mxCell id="CWw4QK-ktK1M6ZPqgGHz-169" value="FK" style="shape=partialRectangle;connectable=0;fillColor=none;top=0;left=0;bottom=0;right=0;fontStyle=1;overflow=hidden;" vertex="1" parent="CWw4QK-ktK1M6ZPqgGHz-168">
          <mxGeometry width="30" height="30" as="geometry" />
        </mxCell>
        <mxCell id="CWw4QK-ktK1M6ZPqgGHz-170" value="WorkoutID" style="shape=partialRectangle;connectable=0;fillColor=none;top=0;left=0;bottom=0;right=0;align=left;spacingLeft=6;fontStyle=5;overflow=hidden;" vertex="1" parent="CWw4QK-ktK1M6ZPqgGHz-168">
          <mxGeometry x="30" width="150" height="30" as="geometry" />
        </mxCell>
        <mxCell id="CWw4QK-ktK1M6ZPqgGHz-171" value="" style="shape=partialRectangle;collapsible=0;dropTarget=0;pointerEvents=0;fillColor=none;top=0;left=0;bottom=0;right=0;points=[[0,0.5],[1,0.5]];portConstraint=eastwest;" vertex="1" parent="CWw4QK-ktK1M6ZPqgGHz-167">
          <mxGeometry y="60" width="180" height="30" as="geometry" />
        </mxCell>
        <mxCell id="CWw4QK-ktK1M6ZPqgGHz-172" value="" style="shape=partialRectangle;connectable=0;fillColor=none;top=0;left=0;bottom=0;right=0;editable=1;overflow=hidden;" vertex="1" parent="CWw4QK-ktK1M6ZPqgGHz-171">
          <mxGeometry width="30" height="30" as="geometry" />
        </mxCell>
        <mxCell id="CWw4QK-ktK1M6ZPqgGHz-173" value="Days" style="shape=partialRectangle;connectable=0;fillColor=none;top=0;left=0;bottom=0;right=0;align=left;spacingLeft=6;overflow=hidden;" vertex="1" parent="CWw4QK-ktK1M6ZPqgGHz-171">
          <mxGeometry x="30" width="150" height="30" as="geometry" />
        </mxCell>
        <mxCell id="CWw4QK-ktK1M6ZPqgGHz-174" value="" style="shape=partialRectangle;collapsible=0;dropTarget=0;pointerEvents=0;fillColor=none;top=0;left=0;bottom=0;right=0;points=[[0,0.5],[1,0.5]];portConstraint=eastwest;" vertex="1" parent="CWw4QK-ktK1M6ZPqgGHz-167">
          <mxGeometry y="90" width="180" height="30" as="geometry" />
        </mxCell>
        <mxCell id="CWw4QK-ktK1M6ZPqgGHz-175" value="" style="shape=partialRectangle;connectable=0;fillColor=none;top=0;left=0;bottom=0;right=0;editable=1;overflow=hidden;" vertex="1" parent="CWw4QK-ktK1M6ZPqgGHz-174">
          <mxGeometry width="30" height="30" as="geometry" />
        </mxCell>
        <mxCell id="CWw4QK-ktK1M6ZPqgGHz-176" value="Sets" style="shape=partialRectangle;connectable=0;fillColor=none;top=0;left=0;bottom=0;right=0;align=left;spacingLeft=6;overflow=hidden;" vertex="1" parent="CWw4QK-ktK1M6ZPqgGHz-174">
          <mxGeometry x="30" width="150" height="30" as="geometry" />
        </mxCell>
        <mxCell id="CWw4QK-ktK1M6ZPqgGHz-177" value="" style="shape=partialRectangle;collapsible=0;dropTarget=0;pointerEvents=0;fillColor=none;top=0;left=0;bottom=0;right=0;points=[[0,0.5],[1,0.5]];portConstraint=eastwest;" vertex="1" parent="CWw4QK-ktK1M6ZPqgGHz-167">
          <mxGeometry y="120" width="180" height="30" as="geometry" />
        </mxCell>
        <mxCell id="CWw4QK-ktK1M6ZPqgGHz-178" value="" style="shape=partialRectangle;connectable=0;fillColor=none;top=0;left=0;bottom=0;right=0;editable=1;overflow=hidden;" vertex="1" parent="CWw4QK-ktK1M6ZPqgGHz-177">
          <mxGeometry width="30" height="30" as="geometry" />
        </mxCell>
        <mxCell id="CWw4QK-ktK1M6ZPqgGHz-179" value="Exercise" style="shape=partialRectangle;connectable=0;fillColor=none;top=0;left=0;bottom=0;right=0;align=left;spacingLeft=6;overflow=hidden;" vertex="1" parent="CWw4QK-ktK1M6ZPqgGHz-177">
          <mxGeometry x="30" width="150" height="30" as="geometry" />
        </mxCell>
        <mxCell id="CWw4QK-ktK1M6ZPqgGHz-180" value="" style="shape=partialRectangle;collapsible=0;dropTarget=0;pointerEvents=0;fillColor=none;top=0;left=0;bottom=0;right=0;points=[[0,0.5],[1,0.5]];portConstraint=eastwest;" vertex="1" parent="CWw4QK-ktK1M6ZPqgGHz-167">
          <mxGeometry y="150" width="180" height="30" as="geometry" />
        </mxCell>
        <mxCell id="CWw4QK-ktK1M6ZPqgGHz-181" value="" style="shape=partialRectangle;connectable=0;fillColor=none;top=0;left=0;bottom=0;right=0;editable=1;overflow=hidden;" vertex="1" parent="CWw4QK-ktK1M6ZPqgGHz-180">
          <mxGeometry width="30" height="30" as="geometry" />
        </mxCell>
        <mxCell id="CWw4QK-ktK1M6ZPqgGHz-182" value="Reps" style="shape=partialRectangle;connectable=0;fillColor=none;top=0;left=0;bottom=0;right=0;align=left;spacingLeft=6;overflow=hidden;" vertex="1" parent="CWw4QK-ktK1M6ZPqgGHz-180">
          <mxGeometry x="30" width="150" height="30" as="geometry" />
        </mxCell>
        <mxCell id="CWw4QK-ktK1M6ZPqgGHz-186" style="edgeStyle=orthogonalEdgeStyle;rounded=0;orthogonalLoop=1;jettySize=auto;html=1;" edge="1" parent="1" source="CWw4QK-ktK1M6ZPqgGHz-38" target="CWw4QK-ktK1M6ZPqgGHz-2">
          <mxGeometry relative="1" as="geometry" />
        </mxCell>
        <mxCell id="CWw4QK-ktK1M6ZPqgGHz-187" style="edgeStyle=orthogonalEdgeStyle;rounded=0;orthogonalLoop=1;jettySize=auto;html=1;entryX=1;entryY=0.5;entryDx=0;entryDy=0;" edge="1" parent="1" source="CWw4QK-ktK1M6ZPqgGHz-60" target="CWw4QK-ktK1M6ZPqgGHz-38">
          <mxGeometry relative="1" as="geometry" />
        </mxCell>
        <mxCell id="CWw4QK-ktK1M6ZPqgGHz-188" value="Health Risks" style="shape=table;startSize=30;container=1;collapsible=1;childLayout=tableLayout;fixedRows=1;rowLines=0;fontStyle=1;align=center;resizeLast=1;" vertex="1" parent="1">
          <mxGeometry x="800" y="315" width="180" height="100" as="geometry" />
        </mxCell>
        <mxCell id="CWw4QK-ktK1M6ZPqgGHz-189" value="" style="shape=partialRectangle;collapsible=0;dropTarget=0;pointerEvents=0;fillColor=none;top=0;left=0;bottom=1;right=0;points=[[0,0.5],[1,0.5]];portConstraint=eastwest;" vertex="1" parent="CWw4QK-ktK1M6ZPqgGHz-188">
          <mxGeometry y="30" width="180" height="30" as="geometry" />
        </mxCell>
        <mxCell id="CWw4QK-ktK1M6ZPqgGHz-190" value="FK" style="shape=partialRectangle;connectable=0;fillColor=none;top=0;left=0;bottom=0;right=0;fontStyle=1;overflow=hidden;" vertex="1" parent="CWw4QK-ktK1M6ZPqgGHz-189">
          <mxGeometry width="30" height="30" as="geometry" />
        </mxCell>
        <mxCell id="CWw4QK-ktK1M6ZPqgGHz-191" value="UserID" style="shape=partialRectangle;connectable=0;fillColor=none;top=0;left=0;bottom=0;right=0;align=left;spacingLeft=6;fontStyle=5;overflow=hidden;" vertex="1" parent="CWw4QK-ktK1M6ZPqgGHz-189">
          <mxGeometry x="30" width="150" height="30" as="geometry" />
        </mxCell>
        <mxCell id="CWw4QK-ktK1M6ZPqgGHz-192" value="" style="shape=partialRectangle;collapsible=0;dropTarget=0;pointerEvents=0;fillColor=none;top=0;left=0;bottom=0;right=0;points=[[0,0.5],[1,0.5]];portConstraint=eastwest;" vertex="1" parent="CWw4QK-ktK1M6ZPqgGHz-188">
          <mxGeometry y="60" width="180" height="30" as="geometry" />
        </mxCell>
        <mxCell id="CWw4QK-ktK1M6ZPqgGHz-193" value="" style="shape=partialRectangle;connectable=0;fillColor=none;top=0;left=0;bottom=0;right=0;editable=1;overflow=hidden;" vertex="1" parent="CWw4QK-ktK1M6ZPqgGHz-192">
          <mxGeometry width="30" height="30" as="geometry" />
        </mxCell>
        <mxCell id="CWw4QK-ktK1M6ZPqgGHz-194" value="Health Risks" style="shape=partialRectangle;connectable=0;fillColor=none;top=0;left=0;bottom=0;right=0;align=left;spacingLeft=6;overflow=hidden;" vertex="1" parent="CWw4QK-ktK1M6ZPqgGHz-192">
          <mxGeometry x="30" width="150" height="30" as="geometry" />
        </mxCell>
        <mxCell id="CWw4QK-ktK1M6ZPqgGHz-201" style="edgeStyle=orthogonalEdgeStyle;rounded=0;orthogonalLoop=1;jettySize=auto;html=1;" edge="1" parent="1" source="CWw4QK-ktK1M6ZPqgGHz-189">
          <mxGeometry relative="1" as="geometry">
            <mxPoint x="780" y="90" as="targetPoint" />
          </mxGeometry>
        </mxCell>
        <mxCell id="CWw4QK-ktK1M6ZPqgGHz-204" value="Preferences" style="shape=table;startSize=30;container=1;collapsible=1;childLayout=tableLayout;fixedRows=1;rowLines=0;fontStyle=1;align=center;resizeLast=1;" vertex="1" parent="1">
          <mxGeometry x="560" y="320" width="180" height="100" as="geometry" />
        </mxCell>
        <mxCell id="CWw4QK-ktK1M6ZPqgGHz-205" value="" style="shape=partialRectangle;collapsible=0;dropTarget=0;pointerEvents=0;fillColor=none;top=0;left=0;bottom=1;right=0;points=[[0,0.5],[1,0.5]];portConstraint=eastwest;" vertex="1" parent="CWw4QK-ktK1M6ZPqgGHz-204">
          <mxGeometry y="30" width="180" height="30" as="geometry" />
        </mxCell>
        <mxCell id="CWw4QK-ktK1M6ZPqgGHz-206" value="FK" style="shape=partialRectangle;connectable=0;fillColor=none;top=0;left=0;bottom=0;right=0;fontStyle=1;overflow=hidden;" vertex="1" parent="CWw4QK-ktK1M6ZPqgGHz-205">
          <mxGeometry width="30" height="30" as="geometry" />
        </mxCell>
        <mxCell id="CWw4QK-ktK1M6ZPqgGHz-207" value="UserID" style="shape=partialRectangle;connectable=0;fillColor=none;top=0;left=0;bottom=0;right=0;align=left;spacingLeft=6;fontStyle=5;overflow=hidden;" vertex="1" parent="CWw4QK-ktK1M6ZPqgGHz-205">
          <mxGeometry x="30" width="150" height="30" as="geometry" />
        </mxCell>
        <mxCell id="CWw4QK-ktK1M6ZPqgGHz-208" value="" style="shape=partialRectangle;collapsible=0;dropTarget=0;pointerEvents=0;fillColor=none;top=0;left=0;bottom=0;right=0;points=[[0,0.5],[1,0.5]];portConstraint=eastwest;" vertex="1" parent="CWw4QK-ktK1M6ZPqgGHz-204">
          <mxGeometry y="60" width="180" height="30" as="geometry" />
        </mxCell>
        <mxCell id="CWw4QK-ktK1M6ZPqgGHz-209" value="" style="shape=partialRectangle;connectable=0;fillColor=none;top=0;left=0;bottom=0;right=0;editable=1;overflow=hidden;" vertex="1" parent="CWw4QK-ktK1M6ZPqgGHz-208">
          <mxGeometry width="30" height="30" as="geometry" />
        </mxCell>
        <mxCell id="CWw4QK-ktK1M6ZPqgGHz-210" value="Preferences" style="shape=partialRectangle;connectable=0;fillColor=none;top=0;left=0;bottom=0;right=0;align=left;spacingLeft=6;overflow=hidden;" vertex="1" parent="CWw4QK-ktK1M6ZPqgGHz-208">
          <mxGeometry x="30" width="150" height="30" as="geometry" />
        </mxCell>
        <mxCell id="CWw4QK-ktK1M6ZPqgGHz-211" style="edgeStyle=orthogonalEdgeStyle;rounded=0;orthogonalLoop=1;jettySize=auto;html=1;" edge="1" parent="1" source="CWw4QK-ktK1M6ZPqgGHz-97">
          <mxGeometry relative="1" as="geometry">
            <mxPoint x="270" y="90" as="targetPoint" />
          </mxGeometry>
        </mxCell>
        <mxCell id="CWw4QK-ktK1M6ZPqgGHz-212" style="edgeStyle=orthogonalEdgeStyle;rounded=0;orthogonalLoop=1;jettySize=auto;html=1;entryX=1;entryY=0.5;entryDx=0;entryDy=0;" edge="1" parent="1" source="CWw4QK-ktK1M6ZPqgGHz-205" target="CWw4QK-ktK1M6ZPqgGHz-97">
          <mxGeometry relative="1" as="geometry" />
        </mxCell>
        <mxCell id="CWw4QK-ktK1M6ZPqgGHz-214" style="edgeStyle=orthogonalEdgeStyle;rounded=0;orthogonalLoop=1;jettySize=auto;html=1;exitX=0;exitY=0.5;exitDx=0;exitDy=0;" edge="1" parent="1" source="CWw4QK-ktK1M6ZPqgGHz-225">
          <mxGeometry relative="1" as="geometry">
            <mxPoint x="250" y="90" as="targetPoint" />
          </mxGeometry>
        </mxCell>
        <mxCell id="CWw4QK-ktK1M6ZPqgGHz-215" style="edgeStyle=orthogonalEdgeStyle;rounded=0;orthogonalLoop=1;jettySize=auto;html=1;exitX=0;exitY=0.5;exitDx=0;exitDy=0;" edge="1" parent="1" source="CWw4QK-ktK1M6ZPqgGHz-217">
          <mxGeometry relative="1" as="geometry">
            <mxPoint x="250" y="410" as="targetPoint" />
          </mxGeometry>
        </mxCell>
        <mxCell id="CWw4QK-ktK1M6ZPqgGHz-235" value="Food/Meal" style="shape=table;startSize=30;container=1;collapsible=1;childLayout=tableLayout;fixedRows=1;rowLines=0;fontStyle=1;align=center;resizeLast=1;" vertex="1" parent="1">
          <mxGeometry x="560" y="440" width="180" height="220" as="geometry" />
        </mxCell>
        <mxCell id="CWw4QK-ktK1M6ZPqgGHz-252" value="" style="shape=partialRectangle;collapsible=0;dropTarget=0;pointerEvents=0;fillColor=none;top=0;left=0;bottom=0;right=0;points=[[0,0.5],[1,0.5]];portConstraint=eastwest;" vertex="1" parent="CWw4QK-ktK1M6ZPqgGHz-235">
          <mxGeometry y="30" width="180" height="30" as="geometry" />
        </mxCell>
        <mxCell id="CWw4QK-ktK1M6ZPqgGHz-253" value="FK" style="shape=partialRectangle;connectable=0;fillColor=none;top=0;left=0;bottom=0;right=0;fontStyle=0;overflow=hidden;" vertex="1" parent="CWw4QK-ktK1M6ZPqgGHz-252">
          <mxGeometry width="30" height="30" as="geometry" />
        </mxCell>
        <mxCell id="CWw4QK-ktK1M6ZPqgGHz-254" value="DietID" style="shape=partialRectangle;connectable=0;fillColor=none;top=0;left=0;bottom=0;right=0;align=left;spacingLeft=6;fontStyle=0;overflow=hidden;" vertex="1" parent="CWw4QK-ktK1M6ZPqgGHz-252">
          <mxGeometry x="30" width="150" height="30" as="geometry" />
        </mxCell>
        <mxCell id="CWw4QK-ktK1M6ZPqgGHz-236" value="" style="shape=partialRectangle;collapsible=0;dropTarget=0;pointerEvents=0;fillColor=none;top=0;left=0;bottom=1;right=0;points=[[0,0.5],[1,0.5]];portConstraint=eastwest;" vertex="1" parent="CWw4QK-ktK1M6ZPqgGHz-235">
          <mxGeometry y="60" width="180" height="30" as="geometry" />
        </mxCell>
        <mxCell id="CWw4QK-ktK1M6ZPqgGHz-237" value="PK" style="shape=partialRectangle;connectable=0;fillColor=none;top=0;left=0;bottom=0;right=0;fontStyle=1;overflow=hidden;" vertex="1" parent="CWw4QK-ktK1M6ZPqgGHz-236">
          <mxGeometry width="30" height="30" as="geometry" />
        </mxCell>
        <mxCell id="CWw4QK-ktK1M6ZPqgGHz-238" value="FoodID" style="shape=partialRectangle;connectable=0;fillColor=none;top=0;left=0;bottom=0;right=0;align=left;spacingLeft=6;fontStyle=5;overflow=hidden;" vertex="1" parent="CWw4QK-ktK1M6ZPqgGHz-236">
          <mxGeometry x="30" width="150" height="30" as="geometry" />
        </mxCell>
        <mxCell id="CWw4QK-ktK1M6ZPqgGHz-239" value="" style="shape=partialRectangle;collapsible=0;dropTarget=0;pointerEvents=0;fillColor=none;top=0;left=0;bottom=0;right=0;points=[[0,0.5],[1,0.5]];portConstraint=eastwest;" vertex="1" parent="CWw4QK-ktK1M6ZPqgGHz-235">
          <mxGeometry y="90" width="180" height="30" as="geometry" />
        </mxCell>
        <mxCell id="CWw4QK-ktK1M6ZPqgGHz-240" value="" style="shape=partialRectangle;connectable=0;fillColor=none;top=0;left=0;bottom=0;right=0;editable=1;overflow=hidden;" vertex="1" parent="CWw4QK-ktK1M6ZPqgGHz-239">
          <mxGeometry width="30" height="30" as="geometry" />
        </mxCell>
        <mxCell id="CWw4QK-ktK1M6ZPqgGHz-241" value="Fat" style="shape=partialRectangle;connectable=0;fillColor=none;top=0;left=0;bottom=0;right=0;align=left;spacingLeft=6;overflow=hidden;" vertex="1" parent="CWw4QK-ktK1M6ZPqgGHz-239">
          <mxGeometry x="30" width="150" height="30" as="geometry" />
        </mxCell>
        <mxCell id="CWw4QK-ktK1M6ZPqgGHz-242" value="" style="shape=partialRectangle;collapsible=0;dropTarget=0;pointerEvents=0;fillColor=none;top=0;left=0;bottom=0;right=0;points=[[0,0.5],[1,0.5]];portConstraint=eastwest;" vertex="1" parent="CWw4QK-ktK1M6ZPqgGHz-235">
          <mxGeometry y="120" width="180" height="30" as="geometry" />
        </mxCell>
        <mxCell id="CWw4QK-ktK1M6ZPqgGHz-243" value="" style="shape=partialRectangle;connectable=0;fillColor=none;top=0;left=0;bottom=0;right=0;editable=1;overflow=hidden;" vertex="1" parent="CWw4QK-ktK1M6ZPqgGHz-242">
          <mxGeometry width="30" height="30" as="geometry" />
        </mxCell>
        <mxCell id="CWw4QK-ktK1M6ZPqgGHz-244" value="Proteins" style="shape=partialRectangle;connectable=0;fillColor=none;top=0;left=0;bottom=0;right=0;align=left;spacingLeft=6;overflow=hidden;" vertex="1" parent="CWw4QK-ktK1M6ZPqgGHz-242">
          <mxGeometry x="30" width="150" height="30" as="geometry" />
        </mxCell>
        <mxCell id="CWw4QK-ktK1M6ZPqgGHz-245" value="" style="shape=partialRectangle;collapsible=0;dropTarget=0;pointerEvents=0;fillColor=none;top=0;left=0;bottom=0;right=0;points=[[0,0.5],[1,0.5]];portConstraint=eastwest;" vertex="1" parent="CWw4QK-ktK1M6ZPqgGHz-235">
          <mxGeometry y="150" width="180" height="30" as="geometry" />
        </mxCell>
        <mxCell id="CWw4QK-ktK1M6ZPqgGHz-246" value="" style="shape=partialRectangle;connectable=0;fillColor=none;top=0;left=0;bottom=0;right=0;editable=1;overflow=hidden;" vertex="1" parent="CWw4QK-ktK1M6ZPqgGHz-245">
          <mxGeometry width="30" height="30" as="geometry" />
        </mxCell>
        <mxCell id="CWw4QK-ktK1M6ZPqgGHz-247" value="Carbs" style="shape=partialRectangle;connectable=0;fillColor=none;top=0;left=0;bottom=0;right=0;align=left;spacingLeft=6;overflow=hidden;" vertex="1" parent="CWw4QK-ktK1M6ZPqgGHz-245">
          <mxGeometry x="30" width="150" height="30" as="geometry" />
        </mxCell>
        <mxCell id="CWw4QK-ktK1M6ZPqgGHz-248" value="" style="shape=partialRectangle;collapsible=0;dropTarget=0;pointerEvents=0;fillColor=none;top=0;left=0;bottom=0;right=0;points=[[0,0.5],[1,0.5]];portConstraint=eastwest;" vertex="1" parent="CWw4QK-ktK1M6ZPqgGHz-235">
          <mxGeometry y="180" width="180" height="30" as="geometry" />
        </mxCell>
        <mxCell id="CWw4QK-ktK1M6ZPqgGHz-249" value="" style="shape=partialRectangle;connectable=0;fillColor=none;top=0;left=0;bottom=0;right=0;editable=1;overflow=hidden;" vertex="1" parent="CWw4QK-ktK1M6ZPqgGHz-248">
          <mxGeometry width="30" height="30" as="geometry" />
        </mxCell>
        <mxCell id="CWw4QK-ktK1M6ZPqgGHz-250" value="Calories" style="shape=partialRectangle;connectable=0;fillColor=none;top=0;left=0;bottom=0;right=0;align=left;spacingLeft=6;overflow=hidden;" vertex="1" parent="CWw4QK-ktK1M6ZPqgGHz-248">
          <mxGeometry x="30" width="150" height="30" as="geometry" />
        </mxCell>
        <mxCell id="CWw4QK-ktK1M6ZPqgGHz-255" style="edgeStyle=orthogonalEdgeStyle;rounded=0;orthogonalLoop=1;jettySize=auto;html=1;entryX=1;entryY=0.5;entryDx=0;entryDy=0;startSize=0;" edge="1" parent="1" source="CWw4QK-ktK1M6ZPqgGHz-252" target="CWw4QK-ktK1M6ZPqgGHz-110">
          <mxGeometry relative="1" as="geometry" />
        </mxCell>
        <mxCell id="CWw4QK-ktK1M6ZPqgGHz-256" value="ServingSizes" style="shape=table;startSize=30;container=1;collapsible=1;childLayout=tableLayout;fixedRows=1;rowLines=0;fontStyle=1;align=center;resizeLast=1;" vertex="1" parent="1">
          <mxGeometry x="800" y="440" width="180" height="100" as="geometry" />
        </mxCell>
        <mxCell id="CWw4QK-ktK1M6ZPqgGHz-257" value="" style="shape=partialRectangle;collapsible=0;dropTarget=0;pointerEvents=0;fillColor=none;top=0;left=0;bottom=1;right=0;points=[[0,0.5],[1,0.5]];portConstraint=eastwest;" vertex="1" parent="CWw4QK-ktK1M6ZPqgGHz-256">
          <mxGeometry y="30" width="180" height="30" as="geometry" />
        </mxCell>
        <mxCell id="CWw4QK-ktK1M6ZPqgGHz-258" value="FK" style="shape=partialRectangle;connectable=0;fillColor=none;top=0;left=0;bottom=0;right=0;fontStyle=1;overflow=hidden;" vertex="1" parent="CWw4QK-ktK1M6ZPqgGHz-257">
          <mxGeometry width="30" height="30" as="geometry" />
        </mxCell>
        <mxCell id="CWw4QK-ktK1M6ZPqgGHz-259" value="FoodID" style="shape=partialRectangle;connectable=0;fillColor=none;top=0;left=0;bottom=0;right=0;align=left;spacingLeft=6;fontStyle=5;overflow=hidden;" vertex="1" parent="CWw4QK-ktK1M6ZPqgGHz-257">
          <mxGeometry x="30" width="150" height="30" as="geometry" />
        </mxCell>
        <mxCell id="CWw4QK-ktK1M6ZPqgGHz-260" value="" style="shape=partialRectangle;collapsible=0;dropTarget=0;pointerEvents=0;fillColor=none;top=0;left=0;bottom=0;right=0;points=[[0,0.5],[1,0.5]];portConstraint=eastwest;" vertex="1" parent="CWw4QK-ktK1M6ZPqgGHz-256">
          <mxGeometry y="60" width="180" height="30" as="geometry" />
        </mxCell>
        <mxCell id="CWw4QK-ktK1M6ZPqgGHz-261" value="" style="shape=partialRectangle;connectable=0;fillColor=none;top=0;left=0;bottom=0;right=0;editable=1;overflow=hidden;" vertex="1" parent="CWw4QK-ktK1M6ZPqgGHz-260">
          <mxGeometry width="30" height="30" as="geometry" />
        </mxCell>
        <mxCell id="CWw4QK-ktK1M6ZPqgGHz-262" value="ServingSizes" style="shape=partialRectangle;connectable=0;fillColor=none;top=0;left=0;bottom=0;right=0;align=left;spacingLeft=6;overflow=hidden;" vertex="1" parent="CWw4QK-ktK1M6ZPqgGHz-260">
          <mxGeometry x="30" width="150" height="30" as="geometry" />
        </mxCell>
        <mxCell id="CWw4QK-ktK1M6ZPqgGHz-263" style="edgeStyle=orthogonalEdgeStyle;rounded=0;orthogonalLoop=1;jettySize=auto;html=1;entryX=1;entryY=0.5;entryDx=0;entryDy=0;startSize=0;" edge="1" parent="1" source="CWw4QK-ktK1M6ZPqgGHz-257" target="CWw4QK-ktK1M6ZPqgGHz-236">
          <mxGeometry relative="1" as="geometry" />
        </mxCell>
        <mxCell id="CWw4QK-ktK1M6ZPqgGHz-264" style="edgeStyle=orthogonalEdgeStyle;rounded=0;orthogonalLoop=1;jettySize=auto;html=1;entryX=1.026;entryY=0.289;entryDx=0;entryDy=0;entryPerimeter=0;startSize=0;" edge="1" parent="1" source="CWw4QK-ktK1M6ZPqgGHz-168" target="CWw4QK-ktK1M6ZPqgGHz-142">
          <mxGeometry relative="1" as="geometry" />
        </mxCell>
        <mxCell id="CWw4QK-ktK1M6ZPqgGHz-268" style="edgeStyle=orthogonalEdgeStyle;rounded=0;orthogonalLoop=1;jettySize=auto;html=1;entryX=1;entryY=0.5;entryDx=0;entryDy=0;startSize=0;" edge="1" parent="1" source="CWw4QK-ktK1M6ZPqgGHz-265" target="CWw4QK-ktK1M6ZPqgGHz-168">
          <mxGeometry relative="1" as="geometry" />
        </mxCell>
        <mxCell id="CWw4QK-ktK1M6ZPqgGHz-276" value="Primary Targets" style="shape=table;startSize=30;container=1;collapsible=1;childLayout=tableLayout;fixedRows=1;rowLines=0;fontStyle=1;align=center;resizeLast=1;" vertex="1" parent="1">
          <mxGeometry x="1020" y="440" width="180" height="100" as="geometry" />
        </mxCell>
        <mxCell id="CWw4QK-ktK1M6ZPqgGHz-277" value="" style="shape=partialRectangle;collapsible=0;dropTarget=0;pointerEvents=0;fillColor=none;top=0;left=0;bottom=1;right=0;points=[[0,0.5],[1,0.5]];portConstraint=eastwest;" vertex="1" parent="CWw4QK-ktK1M6ZPqgGHz-276">
          <mxGeometry y="30" width="180" height="30" as="geometry" />
        </mxCell>
        <mxCell id="CWw4QK-ktK1M6ZPqgGHz-278" value="FK" style="shape=partialRectangle;connectable=0;fillColor=none;top=0;left=0;bottom=0;right=0;fontStyle=1;overflow=hidden;" vertex="1" parent="CWw4QK-ktK1M6ZPqgGHz-277">
          <mxGeometry width="30" height="30" as="geometry" />
        </mxCell>
        <mxCell id="CWw4QK-ktK1M6ZPqgGHz-279" value="ExerciseID" style="shape=partialRectangle;connectable=0;fillColor=none;top=0;left=0;bottom=0;right=0;align=left;spacingLeft=6;fontStyle=5;overflow=hidden;" vertex="1" parent="CWw4QK-ktK1M6ZPqgGHz-277">
          <mxGeometry x="30" width="150" height="30" as="geometry" />
        </mxCell>
        <mxCell id="CWw4QK-ktK1M6ZPqgGHz-280" value="" style="shape=partialRectangle;collapsible=0;dropTarget=0;pointerEvents=0;fillColor=none;top=0;left=0;bottom=0;right=0;points=[[0,0.5],[1,0.5]];portConstraint=eastwest;" vertex="1" parent="CWw4QK-ktK1M6ZPqgGHz-276">
          <mxGeometry y="60" width="180" height="30" as="geometry" />
        </mxCell>
        <mxCell id="CWw4QK-ktK1M6ZPqgGHz-281" value="" style="shape=partialRectangle;connectable=0;fillColor=none;top=0;left=0;bottom=0;right=0;editable=1;overflow=hidden;" vertex="1" parent="CWw4QK-ktK1M6ZPqgGHz-280">
          <mxGeometry width="30" height="30" as="geometry" />
        </mxCell>
        <mxCell id="CWw4QK-ktK1M6ZPqgGHz-282" value="Primary Targets" style="shape=partialRectangle;connectable=0;fillColor=none;top=0;left=0;bottom=0;right=0;align=left;spacingLeft=6;overflow=hidden;" vertex="1" parent="CWw4QK-ktK1M6ZPqgGHz-280">
          <mxGeometry x="30" width="150" height="30" as="geometry" />
        </mxCell>
        <mxCell id="CWw4QK-ktK1M6ZPqgGHz-285" style="edgeStyle=orthogonalEdgeStyle;rounded=0;orthogonalLoop=1;jettySize=auto;html=1;entryX=1;entryY=0.5;entryDx=0;entryDy=0;startSize=0;" edge="1" parent="1" source="CWw4QK-ktK1M6ZPqgGHz-277" target="CWw4QK-ktK1M6ZPqgGHz-155">
          <mxGeometry relative="1" as="geometry" />
        </mxCell>
        <mxCell id="CWw4QK-ktK1M6ZPqgGHz-288" value="Secondary Targets" style="shape=table;startSize=30;container=1;collapsible=1;childLayout=tableLayout;fixedRows=1;rowLines=0;fontStyle=1;align=center;resizeLast=1;" vertex="1" parent="1">
          <mxGeometry x="1020" y="655" width="180" height="100" as="geometry" />
        </mxCell>
        <mxCell id="CWw4QK-ktK1M6ZPqgGHz-289" value="" style="shape=partialRectangle;collapsible=0;dropTarget=0;pointerEvents=0;fillColor=none;top=0;left=0;bottom=1;right=0;points=[[0,0.5],[1,0.5]];portConstraint=eastwest;" vertex="1" parent="CWw4QK-ktK1M6ZPqgGHz-288">
          <mxGeometry y="30" width="180" height="30" as="geometry" />
        </mxCell>
        <mxCell id="CWw4QK-ktK1M6ZPqgGHz-290" value="FK" style="shape=partialRectangle;connectable=0;fillColor=none;top=0;left=0;bottom=0;right=0;fontStyle=1;overflow=hidden;" vertex="1" parent="CWw4QK-ktK1M6ZPqgGHz-289">
          <mxGeometry width="30" height="30" as="geometry" />
        </mxCell>
        <mxCell id="CWw4QK-ktK1M6ZPqgGHz-291" value="ExerciseID" style="shape=partialRectangle;connectable=0;fillColor=none;top=0;left=0;bottom=0;right=0;align=left;spacingLeft=6;fontStyle=5;overflow=hidden;" vertex="1" parent="CWw4QK-ktK1M6ZPqgGHz-289">
          <mxGeometry x="30" width="150" height="30" as="geometry" />
        </mxCell>
        <mxCell id="CWw4QK-ktK1M6ZPqgGHz-292" value="" style="shape=partialRectangle;collapsible=0;dropTarget=0;pointerEvents=0;fillColor=none;top=0;left=0;bottom=0;right=0;points=[[0,0.5],[1,0.5]];portConstraint=eastwest;" vertex="1" parent="CWw4QK-ktK1M6ZPqgGHz-288">
          <mxGeometry y="60" width="180" height="30" as="geometry" />
        </mxCell>
        <mxCell id="CWw4QK-ktK1M6ZPqgGHz-293" value="" style="shape=partialRectangle;connectable=0;fillColor=none;top=0;left=0;bottom=0;right=0;editable=1;overflow=hidden;" vertex="1" parent="CWw4QK-ktK1M6ZPqgGHz-292">
          <mxGeometry width="30" height="30" as="geometry" />
        </mxCell>
        <mxCell id="CWw4QK-ktK1M6ZPqgGHz-294" value="Secondary Targets" style="shape=partialRectangle;connectable=0;fillColor=none;top=0;left=0;bottom=0;right=0;align=left;spacingLeft=6;overflow=hidden;" vertex="1" parent="CWw4QK-ktK1M6ZPqgGHz-292">
          <mxGeometry x="30" width="150" height="30" as="geometry" />
        </mxCell>
        <mxCell id="CWw4QK-ktK1M6ZPqgGHz-295" style="edgeStyle=orthogonalEdgeStyle;rounded=0;orthogonalLoop=1;jettySize=auto;html=1;entryX=1;entryY=0.5;entryDx=0;entryDy=0;startSize=0;" edge="1" parent="1" source="CWw4QK-ktK1M6ZPqgGHz-289" target="CWw4QK-ktK1M6ZPqgGHz-155">
          <mxGeometry relative="1" as="geometry" />
        </mxCell>
      </root>
    </mxGraphModel>
  </diagram>
</mxfile>
